<svg xmlns="http://www.w3.org/2000/svg" width="180" height="26" viewBox="0 0 180 26">
    <g fill="none">
        <path fill="#686868" d="M27.965 12.998V13h4.443v-.002c0-6.961-5.639-12.6-12.598-12.6-4.549 0-8.517 2.414-10.734 6.02V.398H4.629L.184 4.846h4.445v20.752h4.447v-6.024C7.9 17.658 7.209 15.41 7.209 13c0-2.621.978-5.01 2.582-6.836.039-.043.08-.09.121-.133.223-.248.457-.481.703-.705.051-.045.1-.09.15-.137.27-.234.551-.459.844-.666.025-.016.047-.035.07-.053.328-.227.67-.438 1.025-.627l.043-.022c.318-.168.65-.318.988-.453.102-.041.203-.076.307-.113.26-.096.521-.18.791-.252.125-.035.25-.068.377-.098.27-.062.543-.113.818-.154.117-.018.234-.039.356-.055.394-.045.793-.074 1.199-.074.604 0 1.193.059 1.768.158.074.014.152.017.225.033.1.02.195.049.293.07.859.193 1.682.484 2.443.875l.01.006c.279.143.553.299.818.469.024.016.043.031.066.049.242.156.481.32.709.498.022.016.039.033.059.047.228.18.451.367.664.564.02.016.035.037.053.053.213.199.418.404.611.621.021.025.041.053.062.076.188.213.367.43.537.658.072.096.135.201.205.301.109.16.225.316.328.482.104.172.193.353.291.529.053.101.115.201.166.307.098.197.182.402.266.609.039.09.084.176.119.27.109.291.207.588.291.891.004.01.008.017.01.029.174.627.291 1.275.344 1.945.03.276.044.553.044.836M48.672 16.703V.398h-.74L27.918 20.41H44.23v5.191h4.441V20.41h5.188v-3.707h-5.187zm-4.442 0h-7.416l7.416-7.406v7.406z"/>
        <path fill="#FF7800" d="M27.918 20.408l4.012-4.012c.305-1.084.477-2.219.477-3.398h-4.441c0 4.5-3.648 8.152-8.154 8.152-4.508 0-8.152-3.652-8.152-8.152 0-4.502 3.644-8.154 8.152-8.154 4.221 0 7.69 3.207 8.111 7.314-.428-5.334-4.885-9.535-10.338-9.535-5.734 0-10.375 4.646-10.375 10.375 0 6.957 5.639 12.602 12.601 12.602 4.186 0 7.883-2.049 10.174-5.191h-2.067v-.001z"/>
        <path fill="#686868" d="M69.57 17.772c-1.793 2.9-4.324 5.44-7.594 7.62l-1.793-1.714C67.391 19.618 71.1 12.42 71.311 2.084V.581h2.399v1.503c0 .351-.009.695-.026 1.028h.026c.069 3.095.51 5.722 1.318 7.884 1.546 4.5 4.852 8.833 9.914 12.999l-2.004 1.45c-1.301-1.195-2.399-2.25-3.296-3.164-3.463-3.533-5.836-7.436-7.119-11.707-.703 2.619-1.687 5.019-2.953 7.198zM92.59 6.408v-2.32h8.676V.555h2.504v3.533h10.838c.193 0 .352.035.475.105.281.176.422.58.422 1.213-.018 3.814-.062 7.182-.133 10.099-.158 4.939-1.055 7.945-2.689 9.018-1.494 1.002-4.297.914-8.41-.264l-.105-2.795c3.709 1.195 6.09 1.424 7.145.686.439-.316.826-.958 1.16-1.925.316-1.037.502-2.725.555-5.062.105-5.484.096-8.341-.027-8.569-.07-.122-.166-.185-.289-.185h-9.045c-.211 2.918-.896 5.941-2.057 9.07-1.758 3.955-4.43 7.172-8.016 9.65l-1.871-1.767c5.871-3.481 9.018-9.132 9.44-16.954H92.59zM125.076 6.725l-1.924-1.424c2.83-1.529 4.693-3.067 5.59-4.614l2.082.132c-.053.141-.113.273-.184.395 1.231.914 2.486 1.767 3.77 2.558l-1.555 1.714c-1.143-.844-2.215-1.723-3.217-2.637-.984 1.213-2.505 2.504-4.562 3.876zm2.559 7.277h-3.691v-2.083h3.691V9.15h-2.953V7.067h8.358V9.15h-3.217v2.768h3.955v2.083h-3.955v7.646c1.881-.422 3.121-.712 3.719-.87l.369 2.136c-4.764 1.055-8.174 1.688-10.231 1.898l-.211-2.162c1.283-.158 2.672-.352 4.166-.58v-8.067zm-1.821 1.397c.457 2.514.713 4.359.766 5.537l-2.084.079c-.07-1.688-.316-3.48-.738-5.379l2.056-.237zm7.727.238c-.281 1.67-.59 3.111-.924 4.324l-1.871-.606c.492-1.617.791-3.015.896-4.192l1.899.474zm12.92-.897l1.16 1.767c-1.16.896-2.594 1.802-4.299 2.716 1.125 1.758 2.77 3.375 4.932 4.851l-1.898 1.45c-2.004-1.582-3.111-2.584-3.322-3.006-2.074-2.356-3.217-5.405-3.428-9.15h-2.295v9.123c1.512-.387 2.805-.8 3.877-1.239l.633 2.109c-2.18.879-4.887 1.591-8.121 2.136l-.502-2.162c.65-.123 1.293-.237 1.926-.343V1.689c0-.422.211-.633.633-.633h10.283c.439 0 .658.211.658.633v10.995c-.018.457-.246.685-.686.685h-4.219c.105 1.547.326 2.848.66 3.902 1.705-.931 3.041-1.775 4.008-2.531zm-1.951-8.516V3.64c-.018-.333-.193-.501-.527-.501h-6.145c-.352.018-.527.193-.527.527v2.558h7.199zm-7.199 2.083v2.98h6.855c.229 0 .344-.114.344-.343V8.307h-7.199zM156.561 16.56l-1.871-1.477c2.637-2.197 4.596-4.799 5.879-7.805l2.084.949c-.703 1.424-1.381 2.646-2.031 3.665v13.5h-2.293v-10.52c-.634.651-1.224 1.213-1.768 1.688zm5.142-15.267c-1.406 3.375-3.033 5.88-4.879 7.515l-1.951-1.345c2.127-1.916 3.691-4.245 4.693-6.987l2.137.817zm1.951 9.018V8.017h16.162v2.294h-4.219V22.44c-.018 1.019-.422 1.793-1.213 2.32-1.459.949-4.113.861-7.963-.264l.053-2.399c1.371.404 2.717.721 4.035.949 1.178.141 2.029-.009 2.557-.448.158-.141.238-.396.238-.765V10.311h-9.65zm15.108-8.622v2.294h-14.264V1.689h14.264z"/>
    </g>
</svg>
