<svg width="150" height="24" viewBox="0 0 150 24" fill="none" xmlns="http://www.w3.org/2000/svg">
<g clip-path="url(#clip0_2052_85571)">
<path d="M22.3885 9.79431H25.8424C25.8424 4.38216 21.4598 -0.00390625 16.0477 -0.00390625C12.5103 -0.00390625 9.42511 1.87435 7.6999 4.67781V-0.000428007H4.24253L0.785156 3.45695H4.24253V19.596H7.6999V14.9108C6.78513 13.4221 6.246 11.6726 6.246 9.79778C6.246 7.75953 7.00773 5.90215 8.25294 4.48303C8.28425 4.44825 8.31555 4.41346 8.34686 4.38216C8.52077 4.19086 8.70164 4.00651 8.89294 3.8326C8.93468 3.79781 8.96946 3.75955 9.0112 3.72477C9.2199 3.54042 9.43903 3.36651 9.66859 3.20651C9.68598 3.1926 9.70337 3.17869 9.72424 3.16477C9.97815 2.98738 10.246 2.82391 10.5208 2.67434C10.5312 2.67086 10.5451 2.66391 10.5555 2.65695C10.8025 2.52826 11.0599 2.41 11.3242 2.30565C11.4042 2.27434 11.4842 2.24652 11.5642 2.21521C11.766 2.14217 11.9712 2.07608 12.1799 2.02043C12.2773 1.99608 12.3747 1.96826 12.4721 1.94739C12.6807 1.89869 12.8929 1.86043 13.1086 1.82913C13.199 1.81522 13.2929 1.79782 13.3834 1.78391C13.6894 1.74913 13.999 1.72826 14.3155 1.72826C14.7851 1.72826 15.2442 1.77348 15.6894 1.85C15.7486 1.86043 15.8077 1.86391 15.8633 1.87435C15.9399 1.89174 16.0129 1.91261 16.0929 1.93C16.7607 2.07956 17.4007 2.30913 17.992 2.61173C17.992 2.61173 17.9955 2.61173 17.999 2.61173C18.2181 2.72304 18.4303 2.84478 18.6355 2.97695C18.6529 2.98738 18.6703 3.0013 18.6877 3.01173C18.8755 3.13347 19.0598 3.26216 19.2372 3.39782C19.2546 3.41173 19.2685 3.42216 19.2825 3.43608C19.4598 3.57521 19.6338 3.72129 19.8007 3.87434C19.8146 3.88825 19.8285 3.90216 19.8425 3.9126C20.0059 4.06912 20.1659 4.22912 20.3155 4.39607C20.3329 4.41694 20.3468 4.43781 20.3642 4.4552C20.5103 4.62216 20.6494 4.78911 20.7816 4.9665C20.8372 5.04303 20.8859 5.12302 20.9416 5.19955C21.0285 5.32476 21.1155 5.4465 21.1955 5.5752C21.2755 5.70737 21.3451 5.84998 21.4216 5.98563C21.4633 6.06563 21.512 6.14215 21.5503 6.22563C21.6268 6.37867 21.6894 6.53867 21.7555 6.69867C21.7868 6.76823 21.8216 6.8378 21.8494 6.91084C21.9364 7.13693 22.0094 7.36649 22.0755 7.60301C22.0755 7.60997 22.0824 7.61693 22.0824 7.62388C22.2181 8.11084 22.3085 8.61866 22.3503 9.13692C22.3711 9.35257 22.3816 9.56822 22.3816 9.78387" fill="#686868"/>
<path d="M38.4906 12.6782V0H37.9167L22.3516 15.5582H35.0367V19.5964H38.4906V15.5582H42.5254V12.6747H38.4906V12.6782ZM35.0367 12.6782H29.2698L35.0367 6.9217V12.6782Z" fill="#686868"/>
<path d="M22.3504 15.558L25.4703 12.438C25.7069 11.5963 25.8425 10.7128 25.8425 9.79804H22.3886C22.3886 13.2972 19.5504 16.1389 16.0478 16.1389C12.5452 16.1389 9.70695 13.2972 9.70695 9.79804C9.70695 6.29893 12.5417 3.4572 16.0478 3.4572C19.3312 3.4572 22.0269 5.9511 22.3538 9.14413C22.0199 4.99807 18.5556 1.72852 14.3156 1.72852C9.85651 1.72852 6.24609 5.34241 6.24609 9.79456C6.24609 15.2032 10.6322 19.5928 16.0443 19.5928C19.2999 19.5928 22.173 17.9997 23.9573 15.5545H22.3504V15.558Z" fill="#EE7800"/>
<path d="M64.8561 3.71129L62.397 6.05562C60.7239 4.28867 58.8422 3.40172 56.7518 3.40172C54.9883 3.40172 53.4996 4.00694 52.2892 5.21389C51.0822 6.42084 50.477 7.90953 50.477 9.67647C50.477 10.9078 50.7448 12.0034 51.2805 12.9565C51.8161 13.913 52.5744 14.6608 53.5518 15.2069C54.5292 15.753 55.6179 16.0243 56.8144 16.0243C57.8335 16.0243 58.7691 15.833 59.6109 15.4504C60.4561 15.0678 61.3848 14.3756 62.397 13.3704L64.7795 15.8573C63.4161 17.1895 62.1257 18.1147 60.9117 18.6295C59.6978 19.1443 58.3135 19.4016 56.7552 19.4016C53.8822 19.4016 51.5309 18.4903 49.7014 16.6712C47.8718 14.8486 46.957 12.5147 46.957 9.66952C46.957 7.82605 47.3744 6.19127 48.2057 4.75824C49.0405 3.3252 50.2301 2.17738 51.7848 1.30434C53.3396 0.43478 55.0092 0 56.8005 0C58.3239 0 59.7917 0.319998 61.2039 0.966952C62.6161 1.61043 63.83 2.5252 64.8526 3.71129H64.8561Z" fill="#686868"/>
<path d="M77.6392 5.27318H81.0687V18.9357H77.6392V17.4922C76.9714 18.1288 76.3001 18.5879 75.6253 18.8662C74.9505 19.1479 74.2236 19.287 73.4375 19.287C71.674 19.287 70.1471 18.6018 68.8601 17.2349C67.5732 15.8644 66.9297 14.1636 66.9297 12.1288C66.9297 10.094 67.5523 8.28881 68.7975 6.94273C70.0427 5.59318 71.5558 4.92188 73.3366 4.92188C74.1575 4.92188 74.9262 5.0784 75.6462 5.38796C76.3662 5.69752 77.0305 6.16361 77.6427 6.78274V5.27666L77.6392 5.27318ZM74.0357 8.08708C72.9749 8.08708 72.0949 8.46273 71.3958 9.21055C70.6931 9.96185 70.3453 10.9218 70.3453 12.094C70.3453 13.2662 70.7001 14.247 71.4166 15.0088C72.1297 15.7705 73.0097 16.1496 74.0497 16.1496C75.0896 16.1496 76.0183 15.774 76.7279 15.0262C77.4375 14.2784 77.7922 13.294 77.7922 12.0801C77.7922 10.8662 77.4375 9.92707 76.7279 9.19316C76.0183 8.45577 75.1209 8.08708 74.0357 8.08708Z" fill="#686868"/>
<path d="M84.5078 5.27318H87.9374V6.84187C88.5252 6.19839 89.1756 5.71491 89.8921 5.39839C90.6087 5.0784 91.3913 4.92188 92.2365 4.92188C93.0817 4.92188 93.8608 5.13057 94.5495 5.55144C95.2382 5.96883 95.7878 6.581 96.2086 7.38447C96.7547 6.581 97.4225 5.96883 98.2121 5.55144C99.0051 5.13405 99.8677 4.92188 100.807 4.92188C101.746 4.92188 102.633 5.14796 103.37 5.60013C104.108 6.0523 104.636 6.64361 104.96 7.37056C105.283 8.09751 105.443 9.28359 105.443 10.9253V18.9392H101.989V12.0071C101.989 10.4592 101.798 9.40881 101.412 8.85925C101.026 8.30968 100.449 8.03838 99.6799 8.03838C99.0921 8.03838 98.5669 8.20534 98.1043 8.53925C97.6417 8.87316 97.2938 9.33577 97.0678 9.92707C96.8417 10.5184 96.7304 11.4645 96.7304 12.7723V18.9392H93.2765V12.3201C93.2765 11.0992 93.186 10.2123 93.0052 9.66272C92.8243 9.11316 92.553 8.7062 92.1947 8.43838C91.833 8.17055 91.3982 8.03838 90.8869 8.03838C90.3165 8.03838 89.7982 8.20882 89.3321 8.5462C88.8661 8.88359 88.5182 9.36011 88.2887 9.97228C88.0591 10.5845 87.9443 11.5479 87.9443 12.8592V18.9392H84.5148V5.27318H84.5078Z" fill="#686868"/>
<path d="M112.116 5.27275V6.77883C112.735 6.1597 113.407 5.69362 114.127 5.38405C114.847 5.07449 115.615 4.91797 116.436 4.91797C118.22 4.91797 119.733 5.59275 120.982 6.93883C122.231 8.28491 122.853 10.0171 122.853 12.1249C122.853 14.2327 122.21 15.8605 120.92 17.231C119.629 18.6014 118.102 19.2831 116.335 19.2831C115.549 19.2831 114.815 19.144 114.137 18.8622C113.459 18.5805 112.784 18.1249 112.116 17.4883V23.93H108.711V5.27275H112.116ZM115.72 8.08665C114.638 8.08665 113.744 8.45534 113.031 9.19273C112.318 9.93012 111.963 10.8936 111.963 12.0797C111.963 13.2658 112.318 14.2744 113.031 15.0257C113.744 15.7736 114.638 16.1492 115.72 16.1492C116.801 16.1492 117.647 15.7701 118.363 15.0084C119.08 14.2466 119.438 13.2762 119.438 12.0936C119.438 10.911 119.087 9.96142 118.384 9.21012C117.681 8.4623 116.794 8.08665 115.723 8.08665H115.72Z" fill="#686868"/>
<path d="M125.675 5.27344H129.14V11.8543C129.14 13.1343 129.227 14.0247 129.404 14.5221C129.581 15.0195 129.863 15.409 130.253 15.6838C130.642 15.9586 131.122 16.0977 131.693 16.0977C132.263 16.0977 132.747 15.9621 133.147 15.6908C133.547 15.4195 133.842 15.0195 134.034 14.4908C134.176 14.0977 134.249 13.256 134.249 11.9656V5.27344H137.679V11.0612C137.679 13.4473 137.491 15.0821 137.112 15.9586C136.653 17.0299 135.974 17.8542 135.077 18.4282C134.18 19.0021 133.042 19.2873 131.661 19.2873C130.162 19.2873 128.952 18.9534 128.027 18.2821C127.101 17.6108 126.451 16.6786 126.072 15.4821C125.804 14.6543 125.672 13.1447 125.672 10.9604V5.27344H125.675Z" fill="#686868"/>
<path d="M149.486 7.18383L147.365 9.30556C146.502 8.44991 145.719 8.02557 145.017 8.02557C144.631 8.02557 144.332 8.10557 144.113 8.26904C143.893 8.43252 143.786 8.63426 143.786 8.87774C143.786 9.06208 143.855 9.23252 143.994 9.38556C144.133 9.54208 144.474 9.75077 145.017 10.0186L146.273 10.6447C147.594 11.2986 148.502 11.9629 148.996 12.6412C149.49 13.3195 149.737 14.116 149.737 15.0273C149.737 16.2412 149.292 17.2533 148.401 18.0673C147.511 18.8812 146.314 19.2846 144.815 19.2846C142.822 19.2846 141.233 18.5055 140.043 16.9473L142.154 14.6481C142.558 15.1177 143.027 15.4968 143.566 15.7855C144.106 16.0742 144.586 16.2168 145.003 16.2168C145.455 16.2168 145.82 16.109 146.095 15.8899C146.37 15.6707 146.509 15.4203 146.509 15.1351C146.509 14.6064 146.012 14.0916 145.013 13.5908L143.859 13.0134C141.646 11.9003 140.544 10.5056 140.544 8.83252C140.544 7.75078 140.961 6.82905 141.793 6.06384C142.627 5.29862 143.692 4.91602 144.989 4.91602C145.876 4.91602 146.711 5.1108 147.493 5.50036C148.276 5.88992 148.94 6.44992 149.483 7.17687L149.486 7.18383Z" fill="#686868"/>
</g>
<defs>
<clipPath id="clip0_2052_85571">
<rect width="149.217" height="23.9999" fill="white" transform="translate(0.785156)"/>
</clipPath>
</defs>
</svg>
