<svg width="24" height="26" viewBox="0 0 24 26" fill="none" xmlns="http://www.w3.org/2000/svg">
<path d="M11.2197 9.41427H12.2197C12.2197 9.00981 11.9761 8.64517 11.6024 8.49039C11.2287 8.33561 10.7986 8.42116 10.5126 8.70716L11.2197 9.41427ZM3.18853 17.4454L2.48143 16.7383L2.48143 16.7383L3.18853 17.4454ZM12.7197 9.51327L13.4268 8.80616C13.1408 8.52016 12.7107 8.43461 12.337 8.58939C11.9633 8.74417 11.7197 9.10881 11.7197 9.51327H12.7197ZM20.6519 17.4454L19.9448 18.1525L19.9463 18.154L20.6519 17.4454ZM20.6546 17.4481L19.949 18.1567L19.9511 18.1588L20.6546 17.4481ZM20.7536 17.5461L20.0501 18.2568L20.0501 18.2568L20.7536 17.5461ZM21.8142 17.5407L22.5249 18.2443H22.5249L21.8142 17.5407ZM21.8088 16.4801L22.5123 15.7694L22.5123 15.7694L21.8088 16.4801ZM21.7125 16.3848L21.0072 17.0936L21.0091 17.0955L21.7125 16.3848ZM21.7098 16.3821L21.0027 17.0892L21.0045 17.091L21.7098 16.3821ZM13.6759 8.34817L12.9683 9.05476L12.9688 9.05527L13.6759 8.34817ZM10.1653 8.34739L9.45867 7.63977L9.45815 7.64029L10.1653 8.34739ZM10.1649 8.34778L9.45777 7.64067L10.1649 8.34778ZM2.12787 16.3848L2.83498 17.0919L2.83498 17.0919L2.12787 16.3848ZM2.12787 17.4454L2.83498 16.7383L2.83498 16.7383L2.12787 17.4454ZM2.959 2.09961C2.959 2.23768 2.84707 2.34961 2.709 2.34961V0.349609C1.7425 0.349609 0.959003 1.13311 0.959003 2.09961H2.959ZM2.709 1.84961C2.84707 1.84961 2.959 1.96154 2.959 2.09961H0.959003C0.959003 3.06611 1.7425 3.84961 2.709 3.84961V1.84961ZM21.355 1.84961H2.709V3.84961H21.355V1.84961ZM21.105 2.09961C21.105 1.96154 21.2169 1.84961 21.355 1.84961V3.84961C22.3215 3.84961 23.105 3.06611 23.105 2.09961H21.105ZM21.355 2.34961C21.2169 2.34961 21.105 2.23768 21.105 2.09961H23.105C23.105 1.13311 22.3215 0.349609 21.355 0.349609V2.34961ZM2.709 2.34961H21.355V0.349609H2.709V2.34961ZM10.5126 8.70716L2.48143 16.7383L3.89564 18.1525L11.9268 10.1214L10.5126 8.70716ZM12.2197 23.9961V9.41427H10.2197V23.9961H12.2197ZM11.9697 23.7461C12.1078 23.7461 12.2197 23.858 12.2197 23.9961H10.2197C10.2197 24.9626 11.0032 25.7461 11.9697 25.7461V23.7461ZM11.7197 23.9961C11.7197 23.858 11.8316 23.7461 11.9697 23.7461V25.7461C12.9362 25.7461 13.7197 24.9626 13.7197 23.9961H11.7197ZM11.7197 9.51327V23.9961H13.7197V9.51327H11.7197ZM21.359 16.7383L13.4268 8.80616L12.0126 10.2204L19.9448 18.1525L21.359 16.7383ZM21.3602 16.7395L21.3575 16.7368L19.9463 18.154L19.949 18.1567L21.3602 16.7395ZM21.4571 16.8354L21.3581 16.7374L19.9511 18.1588L20.0501 18.2568L21.4571 16.8354ZM21.1035 16.8372C21.2007 16.7391 21.359 16.7383 21.4571 16.8354L20.0501 18.2568C20.7369 18.9367 21.845 18.9311 22.5249 18.2443L21.1035 16.8372ZM21.1053 17.1908C21.0072 17.0936 21.0064 16.9354 21.1035 16.8372L22.5249 18.2443C23.2048 17.5574 23.1992 16.4494 22.5123 15.7694L21.1053 17.1908ZM21.0091 17.0955L21.1054 17.1908L22.5123 15.7694L22.416 15.674L21.0091 17.0955ZM21.0045 17.091L21.0072 17.0936L22.4179 15.6759L22.4152 15.6732L21.0045 17.091ZM12.9688 9.05527L21.0027 17.0892L22.4169 15.675L14.383 7.64106L12.9688 9.05527ZM10.8719 9.05501C11.4615 8.46624 12.3812 8.46679 12.9683 9.05476L14.3835 7.64157C13.0138 6.26987 10.8278 6.27264 9.45867 7.63977L10.8719 9.05501ZM10.872 9.05489L10.8724 9.0545L9.45815 7.64029L9.45777 7.64067L10.872 9.05489ZM2.83498 17.0919L10.872 9.05489L9.45777 7.64067L1.42077 15.6777L2.83498 17.0919ZM2.83498 16.7383C2.93261 16.836 2.93261 16.9943 2.83498 17.0919L1.42077 15.6777C0.737349 16.3611 0.737347 17.4691 1.42077 18.1525L2.83498 16.7383ZM2.48143 16.7383C2.57906 16.6407 2.73735 16.6407 2.83498 16.7383L1.42076 18.1525C2.10418 18.836 3.21222 18.836 3.89564 18.1525L2.48143 16.7383Z" fill="#7E7E7E"/>
</svg>
