<svg width="24" height="24" viewBox="0 0 24 24" fill="none" xmlns="http://www.w3.org/2000/svg">
<g id="Icon/Action/GoTop">
<g id="Combined Shape">
<path fill-rule="evenodd" clip-rule="evenodd" d="M2.709 0.349609C2.29479 0.349609 1.959 0.685396 1.959 1.09961C1.959 1.51382 2.29479 1.84961 2.709 1.84961H21.355C21.7692 1.84961 22.105 1.51382 22.105 1.09961C22.105 0.685396 21.7692 0.349609 21.355 0.349609H2.709ZM3.18853 16.4454L11.2197 8.41427V22.9961C11.2197 23.4103 11.5555 23.7461 11.9697 23.7461C12.3839 23.7461 12.7197 23.4103 12.7197 22.9961V8.51327L20.6519 16.4454L20.6546 16.4481L20.7536 16.5461C21.0479 16.8375 21.5228 16.8351 21.8142 16.5407C22.1056 16.2464 22.1032 15.7715 21.8088 15.4801L21.7125 15.3848L21.7098 15.3821L13.6759 7.34817C12.6975 6.36833 11.1446 6.36944 10.1653 7.34739L10.1649 7.34778L2.12787 15.3848C1.83498 15.6777 1.83498 16.1525 2.12787 16.4454C2.42077 16.7383 2.89564 16.7383 3.18853 16.4454Z" fill="#7E7E7E"/>
<path d="M11.2197 8.41427H11.4697C11.4697 8.31315 11.4088 8.22199 11.3154 8.1833C11.222 8.1446 11.1144 8.16599 11.0429 8.23749L11.2197 8.41427ZM3.18853 16.4454L3.01176 16.2687L3.01176 16.2687L3.18853 16.4454ZM12.7197 8.51327L12.8965 8.33649C12.825 8.26499 12.7175 8.2436 12.624 8.2823C12.5306 8.32099 12.4697 8.41215 12.4697 8.51327H12.7197ZM20.6519 16.4454L20.4751 16.6222L20.4755 16.6226L20.6519 16.4454ZM20.6546 16.4481L20.4782 16.6253L20.4787 16.6258L20.6546 16.4481ZM20.7536 16.5461L20.5777 16.7238H20.5777L20.7536 16.5461ZM21.8142 16.5407L21.9919 16.7166L21.8142 16.5407ZM21.8088 15.4801L21.9847 15.3024L21.9847 15.3024L21.8088 15.4801ZM21.7125 15.3848L21.5362 15.562L21.5367 15.5625L21.7125 15.3848ZM21.7098 15.3821L21.5331 15.5589L21.5335 15.5593L21.7098 15.3821ZM13.6759 7.34817L13.499 7.52481L13.4991 7.52494L13.6759 7.34817ZM10.1653 7.34739L9.98861 7.17049L9.98848 7.17062L10.1653 7.34739ZM10.1649 7.34778L9.9881 7.171L10.1649 7.34778ZM2.12787 15.3848L2.30465 15.5616H2.30465L2.12787 15.3848ZM2.12787 16.4454L2.30465 16.2687L2.30465 16.2687L2.12787 16.4454ZM2.209 1.09961C2.209 0.823467 2.43286 0.599609 2.709 0.599609V0.0996094C2.15672 0.0996094 1.709 0.547325 1.709 1.09961H2.209ZM2.709 1.59961C2.43286 1.59961 2.209 1.37575 2.209 1.09961H1.709C1.709 1.65189 2.15672 2.09961 2.709 2.09961V1.59961ZM21.355 1.59961H2.709V2.09961H21.355V1.59961ZM21.855 1.09961C21.855 1.37575 21.6311 1.59961 21.355 1.59961V2.09961C21.9073 2.09961 22.355 1.65189 22.355 1.09961H21.855ZM21.355 0.599609C21.6311 0.599609 21.855 0.823467 21.855 1.09961H22.355C22.355 0.547325 21.9073 0.0996094 21.355 0.0996094V0.599609ZM2.709 0.599609H21.355V0.0996094H2.709V0.599609ZM11.0429 8.23749L3.01176 16.2687L3.36531 16.6222L11.3965 8.59105L11.0429 8.23749ZM11.4697 22.9961V8.41427H10.9697V22.9961H11.4697ZM11.9697 23.4961C11.6936 23.4961 11.4697 23.2723 11.4697 22.9961H10.9697C10.9697 23.5484 11.4174 23.9961 11.9697 23.9961V23.4961ZM12.4697 22.9961C12.4697 23.2723 12.2458 23.4961 11.9697 23.4961V23.9961C12.522 23.9961 12.9697 23.5484 12.9697 22.9961H12.4697ZM12.4697 8.51327V22.9961H12.9697V8.51327H12.4697ZM20.8286 16.2687L12.8965 8.33649L12.5429 8.69005L20.4751 16.6222L20.8286 16.2687ZM20.831 16.271L20.8283 16.2683L20.4755 16.6226L20.4782 16.6253L20.831 16.271ZM20.9294 16.3685L20.8304 16.2705L20.4787 16.6258L20.5777 16.7238L20.9294 16.3685ZM21.6365 16.3649C21.4423 16.5611 21.1257 16.5627 20.9294 16.3685L20.5777 16.7238C20.9702 17.1123 21.6033 17.1091 21.9919 16.7166L21.6365 16.3649ZM21.633 15.6578C21.8292 15.852 21.8308 16.1686 21.6365 16.3649L21.9919 16.7166C22.3804 16.3241 22.3772 15.691 21.9847 15.3024L21.633 15.6578ZM21.5367 15.5625L21.633 15.6578L21.9847 15.3024L21.8884 15.2071L21.5367 15.5625ZM21.5335 15.5593L21.5362 15.562L21.8889 15.2076L21.8862 15.2049L21.5335 15.5593ZM13.4991 7.52494L21.5331 15.5589L21.8866 15.2053L13.8527 7.17139L13.4991 7.52494ZM10.3419 7.5243C11.2238 6.64364 12.6184 6.64295 13.499 7.52481L13.8528 7.17152C12.7766 6.09371 11.0654 6.09524 9.98861 7.17049L10.3419 7.5243ZM10.3417 7.52456L10.342 7.52417L9.98848 7.17062L9.9881 7.171L10.3417 7.52456ZM2.30465 15.5616L10.3417 7.52456L9.9881 7.171L1.9511 15.208L2.30465 15.5616ZM2.30465 16.2687C2.10939 16.0734 2.10939 15.7568 2.30465 15.5616L1.9511 15.208C1.56057 15.5985 1.56057 16.2317 1.9511 16.6222L2.30465 16.2687ZM3.01176 16.2687C2.81649 16.4639 2.49991 16.4639 2.30465 16.2687L1.9511 16.6222C2.34162 17.0127 2.97479 17.0127 3.36531 16.6222L3.01176 16.2687Z" fill="#7E7E7E"/>
</g>
</g>
</svg>
