<svg width="24" height="24" viewBox="0 0 24 24" fill="none" xmlns="http://www.w3.org/2000/svg">
<g id="icon/action/menu">
<path id="&#233;&#129;&#184;&#230;&#147;&#135; icon &#231;&#139;&#128;&#230;&#133;&#139;" fill-rule="evenodd" clip-rule="evenodd" d="M21.0625 6.64706H2.9375C2.42 6.64706 2 6.27812 2 5.82353C2 5.36894 2.42 5 2.9375 5H21.0625C21.58 5 22 5.36894 22 5.82353C22 6.27812 21.58 6.64706 21.0625 6.64706ZM21.0625 12.8235H2.9375C2.42 12.8235 2 12.4546 2 12C2 11.5454 2.42 11.1765 2.9375 11.1765H21.0625C21.58 11.1765 22 11.5454 22 12C22 12.4546 21.58 12.8235 21.0625 12.8235ZM2.9375 19H21.0625C21.58 19 22 18.6311 22 18.1765C22 17.7219 21.58 17.3529 21.0625 17.3529H2.9375C2.42 17.3529 2 17.7219 2 18.1765C2 18.6311 2.42 19 2.9375 19Z" fill="#7E7E7E"/>
</g>
</svg>
