<svg width="16" height="16" viewBox="0 0 16 16" fill="none" xmlns="http://www.w3.org/2000/svg">
<path fill-rule="evenodd" clip-rule="evenodd" d="M5.85106 14.9517C6.01191 15.173 6.31346 15.2282 6.5246 15.0748C6.5246 15.0748 8.067 13.9541 9.24824 13.0959C9.43592 12.9596 10.0037 12.7677 10.4839 13.201C10.9641 13.6343 13.0523 15.553 13.2692 15.7579C13.486 15.9629 13.7316 16.0344 13.9427 15.881C14.1538 15.7277 14.1517 15.4509 14.0338 15.2024C13.9159 14.9539 12.7178 12.3787 12.4662 11.7608C12.2146 11.1428 12.5435 10.7018 12.7389 10.5598C13.7977 9.79052 15.4682 8.57685 15.4682 8.57685C15.6793 8.42345 15.7201 8.11963 15.5593 7.89823C14.6837 6.69315 13.283 5.98615 11.8504 6.00915L9.62569 2.94709L10.7726 2.11384C10.9837 1.96044 11.0245 1.65661 10.8636 1.43522L10.2811 0.633518C9.79937 -0.0295775 8.89294 -0.195253 8.26055 0.264201L0.846088 5.65113C0.213704 6.11058 0.0911669 7.02385 0.572934 7.68694L1.1554 8.48864C1.31626 8.71004 1.61781 8.76515 1.82895 8.61175L2.97582 7.7785L5.20053 10.8406C4.73595 12.196 4.97551 13.7466 5.85106 14.9517Z" fill="#7E7E7E"/>
</svg>
