<svg width="16" height="16" viewBox="0 0 16 16" fill="none" xmlns="http://www.w3.org/2000/svg">
<path d="M14.1107 8.74187L13.9999 8.75L8.74942 8.74953L8.74989 14C8.74989 14.4142 8.4141 14.75 7.99989 14.75C7.62333 14.75 7.31159 14.4725 7.25802 14.1108L7.24989 14L7.25035 8.74953L1.99989 8.75C1.58567 8.75 1.24989 8.41421 1.24989 8C1.24989 7.62344 1.5274 7.3117 1.88906 7.25813L1.99989 7.25L7.25035 7.25047L7.24989 2C7.24989 1.58579 7.58567 1.25 7.99989 1.25C8.37644 1.25 8.68819 1.52751 8.74175 1.88917L8.74989 2L8.74942 7.25047L13.9999 7.25C14.4141 7.25 14.7499 7.58579 14.7499 8C14.7499 8.33472 14.5306 8.61822 14.2279 8.71472L14.1107 8.74187Z" fill="#7E7E7E"/>
</svg>
