<svg width="24" height="24" viewBox="0 0 24 24" fill="none" xmlns="http://www.w3.org/2000/svg">
<path d="M5.00098 2.49829C5.00098 1.66986 4.3294 0.998291 3.50098 0.998291C2.67255 0.998291 2.00098 1.66986 2.00098 2.49829V21.4983C2.00098 22.3267 2.67255 22.9983 3.50098 22.9983C4.3294 22.9983 5.00098 22.3267 5.00098 21.4983V2.49829Z" fill="#FF9100"/>
<path d="M20.501 20.0017H3.50098C2.67255 20.0017 2.00098 20.6733 2.00098 21.5017C2.00098 22.3301 2.67255 23.0017 3.50098 23.0017H20.501C21.3294 23.0017 22.001 22.3301 22.001 21.5017C22.001 20.6733 21.3294 20.0017 20.501 20.0017Z" fill="#FF9100"/>
<path d="M20.501 0.998291H3.50098C2.67255 0.998291 2.00098 1.66986 2.00098 2.49829C2.00098 3.32672 2.67255 3.99829 3.50098 3.99829H20.501C21.3294 3.99829 22.001 3.32672 22.001 2.49829C22.001 1.66986 21.3294 0.998291 20.501 0.998291Z" fill="#FFC31B"/>
<path d="M21.999 2.49829C21.999 1.66986 21.3275 0.998291 20.499 0.998291C19.6706 0.998291 18.999 1.66986 18.999 2.49829V21.4983C18.999 22.3267 19.6706 22.9983 20.499 22.9983C21.3275 22.9983 21.999 22.3267 21.999 21.4983V2.49829Z" fill="#FFC31B"/>
<path d="M15.5039 7.99561H8.50391C7.67548 7.99561 7.00391 8.66718 7.00391 9.49561C7.00391 10.324 7.67548 10.9956 8.50391 10.9956H15.5039C16.3323 10.9956 17.0039 10.324 17.0039 9.49561C17.0039 8.66718 16.3323 7.99561 15.5039 7.99561Z" fill="#FF7800"/>
<path d="M13.0039 12.9973H8.50391C7.67548 12.9973 7.00391 13.6689 7.00391 14.4973C7.00391 15.3257 7.67548 15.9973 8.50391 15.9973H13.0039C13.8323 15.9973 14.5039 15.3257 14.5039 14.4973C14.5039 13.6689 13.8323 12.9973 13.0039 12.9973Z" fill="#FF7800"/>
<path d="M5.00098 21.5017C5.00098 20.6733 4.3294 20.0017 3.50098 20.0017C2.67255 20.0017 2.00098 20.6733 2.00098 21.5017C2.00098 22.3301 2.67255 23.0017 3.50098 23.0017C4.3294 23.0017 5.00098 22.3301 5.00098 21.5017Z" fill="#FF7800"/>
</svg>
