<svg width="24" height="24" viewBox="0 0 24 24" fill="none" xmlns="http://www.w3.org/2000/svg">
<path d="M12 16.5C12.8 16.5 13.5 17.2 13.5 18V21.5C13.5 22.3 12.8 23 12 23C11.2 23 10.5 22.3 10.5 21.5V18C10.5 17.2 11.2 16.5 12 16.5Z" fill="#FF9100"/>
<path d="M7.79795 8.90112V11.6011C7.79795 14.0011 9.79795 15.9011 12.198 15.9011C14.498 15.9011 16.398 14.0011 16.498 11.7011V11.6011V8.90112H19.498V11.6011C19.498 16.1011 16.598 18.9011 12.198 18.9011C7.79795 18.9011 4.99795 16.1011 4.89795 11.7011V11.6011V8.90112C4.79795 8.90112 7.79795 8.90112 7.79795 8.90112Z" fill="#FF7800"/>
<path d="M5.99902 0.998291C8.79902 0.998291 10.999 3.19829 10.999 5.99829C10.999 8.79829 8.79902 10.9983 5.99902 10.9983C3.19902 10.9983 0.999023 8.79829 0.999023 5.99829C0.999023 3.19829 3.19902 0.998291 5.99902 0.998291ZM5.99902 3.99829C4.89902 3.99829 3.99902 4.89829 3.99902 5.99829C3.99902 7.09829 4.89902 7.99829 5.99902 7.99829C7.09902 7.99829 7.99902 7.09829 7.99902 5.99829C7.99902 4.89829 7.09902 3.99829 5.99902 3.99829Z" fill="#FEC21A"/>
<path d="M17.999 0.998291C20.799 0.998291 22.999 3.19829 22.999 5.99829C22.999 8.79829 20.799 10.9983 17.999 10.9983C15.199 10.9983 12.999 8.79829 12.999 5.99829C12.999 3.19829 15.199 0.998291 17.999 0.998291ZM17.999 3.99829C16.899 3.99829 15.999 4.89829 15.999 5.99829C15.999 7.09829 16.899 7.99829 17.999 7.99829C19.099 7.99829 19.999 7.09829 19.999 5.99829C19.999 4.89829 19.099 3.99829 17.999 3.99829Z" fill="#FEC21A"/>
</svg>
