<svg width="24" height="24" viewBox="0 0 24 24" fill="none" xmlns="http://www.w3.org/2000/svg">
<path d="M3.50098 0.998291C4.30098 0.998291 5.00098 1.69829 5.00098 2.49829V21.4983C5.00098 22.2983 4.30098 22.9983 3.50098 22.9983C2.70098 22.9983 2.00098 22.2983 2.00098 21.4983V2.49829C2.00098 1.69829 2.70098 0.998291 3.50098 0.998291Z" fill="#FF9100"/>
<path d="M20.501 20.0017C21.301 20.0017 22.001 20.7017 22.001 21.5017C22.001 22.3017 21.301 23.0017 20.501 23.0017H3.50098C2.70098 23.0017 2.00098 22.3017 2.00098 21.5017C2.00098 20.7017 2.70098 20.0017 3.50098 20.0017H20.501Z" fill="#FF9100"/>
<path d="M20.501 0.998291C21.301 0.998291 22.001 1.69829 22.001 2.49829C22.001 3.29829 21.301 3.99829 20.501 3.99829H3.50098C2.70098 3.99829 2.00098 3.29829 2.00098 2.49829C2.00098 1.69829 2.70098 0.998291 3.50098 0.998291H20.501Z" fill="#FEC21A"/>
<path d="M20.499 0.998291C21.299 0.998291 21.999 1.69829 21.999 2.49829V21.4983C21.999 22.2983 21.299 22.9983 20.499 22.9983C19.699 22.9983 18.999 22.2983 18.999 21.4983V2.49829C18.999 1.69829 19.699 0.998291 20.499 0.998291Z" fill="#FEC21A"/>
<path d="M3.50098 23.0017C4.3294 23.0017 5.00098 22.3301 5.00098 21.5017C5.00098 20.6733 4.3294 20.0017 3.50098 20.0017C2.67255 20.0017 2.00098 20.6733 2.00098 21.5017C2.00098 22.3301 2.67255 23.0017 3.50098 23.0017Z" fill="#FF7800"/>
<path d="M12.001 5.39917C14.201 5.39917 16.001 7.19917 16.001 9.39917C16.001 11.5992 14.201 13.3992 12.001 13.3992C9.80098 13.3992 8.00098 11.5992 8.00098 9.39917C8.00098 7.19917 9.80098 5.39917 12.001 5.39917ZM12.001 8.39917C11.401 8.39917 11.001 8.79917 11.001 9.39917C11.001 9.99917 11.401 10.3992 12.001 10.3992C12.601 10.3992 13.001 9.99917 13.001 9.39917C13.001 8.79917 12.601 8.39917 12.001 8.39917Z" fill="#FF9100"/>
<path d="M17.501 19.9983H14.501C14.501 18.5983 13.401 17.4983 12.001 17.4983C10.601 17.4983 9.50098 18.5983 9.50098 19.9983H6.50098C6.50098 16.9983 9.00098 14.4983 12.001 14.4983C15.001 14.4983 17.501 16.9983 17.501 19.9983Z" fill="#FEC21A"/>
</svg>
