<svg width="24" height="24" viewBox="0 0 24 24" fill="none" xmlns="http://www.w3.org/2000/svg">
<path d="M20.9477 19.8701L12.8912 14.8359C12.1887 14.3969 11.2633 14.6105 10.8243 15.3131C10.3853 16.0156 10.5989 16.941 11.3015 17.38L19.3579 22.4143C20.0605 22.8533 20.9859 22.6396 21.4249 21.9371C21.8639 21.2345 21.6502 20.3091 20.9477 19.8701Z" fill="#FF7800"/>
<path d="M3.05136 19.8701L11.1078 14.8359C11.8104 14.3969 12.7358 14.6105 13.1748 15.3131C13.6138 16.0156 13.4001 16.941 12.6976 17.38L4.64111 22.4143C3.93857 22.8533 3.01316 22.6396 2.57416 21.9371C2.13516 21.2345 2.34881 20.3091 3.05136 19.8701Z" fill="#FF9000"/>
<path d="M2.34065 20.5662L10.6874 2.66659C11.0375 1.91578 11.9299 1.59095 12.6808 1.94106C13.4316 2.29116 13.7564 3.18364 13.4063 3.93445L5.05957 21.834C4.70947 22.5848 3.817 22.9097 3.06619 22.5596C2.31538 22.2094 1.99054 21.317 2.34065 20.5662Z" fill="#FF7800"/>
<path d="M21.7404 20.5659L13.3937 2.66635C13.0436 1.91554 12.1511 1.5907 11.4003 1.94081C10.6495 2.29092 10.3247 3.18339 10.6748 3.9342L19.0215 21.8338C19.3716 22.5846 20.2641 22.9094 21.0149 22.5593C21.7657 22.2092 22.0905 21.3167 21.7404 20.5659Z" fill="#FF9000"/>
</svg>
